<svg width="1024" height="1024" viewBox="0 0 120 120" xmlns="http://www.w3.org/2000/svg">
  <rect width="120" height="120" fill="#1A1714"/>
  <rect x="22" y="18" width="56" height="68" rx="6" fill="#2C2825"/>
  <rect x="22" y="18" width="56" height="68" rx="6" fill="none" stroke="#C8A882" stroke-width="1.5"/>
  <rect x="31" y="32" width="38" height="4" rx="2" fill="#C8A882"/>
  <rect x="31" y="42" width="28" height="3" rx="1.5" fill="#C8A882" opacity="0.55"/>
  <rect x="31" y="51" width="32" height="3" rx="1.5" fill="#C8A882" opacity="0.35"/>
  <rect x="31" y="60" width="20" height="3" rx="1.5" fill="#C8A882" opacity="0.25"/>
  <rect x="58" y="58" width="40" height="40" rx="10" fill="#C8A882"/>
  <rect x="65" y="70" width="26" height="20" rx="3" fill="#1A1714"/>
  <rect x="65" y="65" width="6" height="10" rx="2" fill="#1A1714"/>
  <rect x="87" y="65" width="6" height="10" rx="2" fill="#1A1714"/>
  <rect x="65" y="73" width="26" height="1.5" fill="#C8A882" opacity="0.4"/>
  <rect x="68" y="77" width="5" height="5" rx="1" fill="#C8A882"/>
  <rect x="76" y="77" width="5" height="5" rx="1" fill="#C8A882" opacity="0.6"/>
  <rect x="84" y="77" width="5" height="5" rx="1" fill="#C8A882" opacity="0.3"/>
  <rect x="68" y="84" width="5" height="5" rx="1" fill="#C8A882" opacity="0.5"/>
  <rect x="76" y="84" width="5" height="5" rx="1" fill="#C8A882"/>
</svg>
